# xmcd
#
# Track frame offsets:
# 150
# 22470
# 46266
# 73351
# 92439
# 112473
# 135322
# 158087
# 191316
# 223918
#
# Disc length: 3269 seconds
#
# Revision: 1
# Processed by: cddbd v1.5.2PL0 Copyright (c) Steve Scherf et al.
# Submitted via: inCDius 2.0b9
#
DISCID=950cc30a
DTITLE=Jim White - Crossing The Border Festival - Live
DYEAR=1900
DGENRE=
TTITLE0=Wash Away A World
TTITLE1=Fireworkds Factory
TTITLE2=A Perfect Day To Chase Tornadoes
TTITLE3=Corvair
TTITLE4=Handcuffed To A Fence In Mississippi
TTITLE5=You Can't Get To Heaven On Borrowed Wings
TTITLE6=Ghost-town Of My Brain
TTITLE7=Christmas Day
TTITLE8=Still Waters
TTITLE9=God Was Drunk When He Made Me
EXTD=
EXTT0=
EXTT1=
EXTT2=
EXTT3=
EXTT4=
EXTT5=
EXTT6=
EXTT7=
EXTT8=
EXTT9=
PLAYORDER=
